G04 #@! TF.GenerationSoftware,KiCad,Pcbnew,8.0.3*
G04 #@! TF.CreationDate,2025-08-16T11:06:09+02:00*
G04 #@! TF.ProjectId,Pomiar_Filtrow_PCB,506f6d69-6172-45f4-9669-6c74726f775f,rev?*
G04 #@! TF.SameCoordinates,Original*
G04 #@! TF.FileFunction,Legend,Bot*
G04 #@! TF.FilePolarity,Positive*
%FSLAX46Y46*%
G04 Gerber Fmt 4.6, Leading zero omitted, Abs format (unit mm)*
G04 Created by KiCad (PCBNEW 8.0.3) date 2025-08-16 11:06:09*
%MOMM*%
%LPD*%
G01*
G04 APERTURE LIST*
%ADD10R,2.200000X2.200000*%
%ADD11O,2.200000X2.200000*%
%ADD12C,1.600000*%
%ADD13O,1.600000X1.600000*%
%ADD14R,1.700000X1.700000*%
%ADD15O,1.700000X1.700000*%
%ADD16O,1.600000X2.500000*%
%ADD17O,3.500000X7.000000*%
%ADD18C,3.200000*%
%ADD19R,1.800000X1.800000*%
%ADD20C,1.800000*%
%ADD21O,1.600000X1.700000*%
%ADD22R,4.600000X2.000000*%
%ADD23O,4.200000X2.000000*%
%ADD24O,2.000000X4.200000*%
%ADD25C,0.600000*%
G04 APERTURE END LIST*
%LPC*%
D10*
X152450000Y-138075000D03*
D11*
X152450000Y-148235000D03*
D12*
X134875000Y-132650000D03*
X134875000Y-127650000D03*
X142150000Y-143005000D03*
D13*
X142150000Y-132845000D03*
D12*
X141925000Y-117300000D03*
X141925000Y-122300000D03*
X134850000Y-97750000D03*
X134850000Y-92750000D03*
X115750000Y-97950000D03*
X120750000Y-97950000D03*
X141975000Y-125025000D03*
X141975000Y-130025000D03*
D14*
X100325000Y-79375000D03*
D15*
X100325000Y-76835000D03*
X102865000Y-79375000D03*
X102865000Y-76835000D03*
X105405000Y-79375000D03*
X105405000Y-76835000D03*
D12*
X125925000Y-84025000D03*
X120925000Y-84025000D03*
D16*
X127050000Y-151500000D03*
D17*
X132130000Y-156580000D03*
D16*
X129590000Y-151500000D03*
D17*
X121970000Y-156580000D03*
D14*
X152650000Y-151925000D03*
D15*
X152650000Y-154465000D03*
D12*
X91530000Y-122580000D03*
X96530000Y-122580000D03*
X120725000Y-109600000D03*
X115725000Y-109600000D03*
X146025000Y-142750000D03*
X146025000Y-137750000D03*
D18*
X90800000Y-160800000D03*
D12*
X109875000Y-146000000D03*
X109875000Y-141000000D03*
X96575000Y-95093885D03*
X91575000Y-95093885D03*
D18*
X151700000Y-60575000D03*
D16*
X127175000Y-69775000D03*
D17*
X122095000Y-64695000D03*
D16*
X124635000Y-69775000D03*
D17*
X132255000Y-64695000D03*
D12*
X125950000Y-102000000D03*
X120950000Y-102000000D03*
X109875000Y-116025000D03*
X109875000Y-111025000D03*
X91625000Y-105495000D03*
X96625000Y-105495000D03*
X109875000Y-99468885D03*
X109875000Y-94468885D03*
X120730000Y-127160000D03*
X115730000Y-127160000D03*
D19*
X148625000Y-114325000D03*
D20*
X148625000Y-111785000D03*
D12*
X115662500Y-145450000D03*
X120662500Y-145450000D03*
X134900000Y-146050000D03*
X134900000Y-141050000D03*
D18*
X151700000Y-160800000D03*
D12*
X91575000Y-88368885D03*
X96575000Y-88368885D03*
D16*
X102850000Y-151525000D03*
D17*
X107930000Y-156605000D03*
D16*
X105390000Y-151525000D03*
D17*
X97770000Y-156605000D03*
D12*
X134800000Y-115975000D03*
X134800000Y-110975000D03*
X146875000Y-146275000D03*
X141875000Y-146275000D03*
X91505000Y-132855000D03*
X96505000Y-132855000D03*
D14*
X124650000Y-79450000D03*
D15*
X124650000Y-76910000D03*
X127190000Y-79450000D03*
X127190000Y-76910000D03*
X129730000Y-79450000D03*
X129730000Y-76910000D03*
D12*
X120800000Y-91525000D03*
X115800000Y-91525000D03*
X115725000Y-116025000D03*
X120725000Y-116025000D03*
X109875000Y-132775000D03*
X109875000Y-127775000D03*
D16*
X102900000Y-69800000D03*
D17*
X97820000Y-64720000D03*
D16*
X100360000Y-69800000D03*
D17*
X107980000Y-64720000D03*
D18*
X90800000Y-60600000D03*
D12*
X96505000Y-129030000D03*
X91505000Y-129030000D03*
X91500000Y-145450000D03*
X96500000Y-145450000D03*
D14*
X147242500Y-133772500D03*
D15*
X147242500Y-131232500D03*
X147242500Y-123612500D03*
D21*
X147242500Y-121072500D03*
D15*
X147242500Y-118532500D03*
D12*
X91587500Y-116057500D03*
X96587500Y-116057500D03*
X96600000Y-112120000D03*
X91600000Y-112120000D03*
D22*
X142825000Y-150550000D03*
D23*
X142825000Y-156850000D03*
D24*
X147625000Y-153450000D03*
D12*
X125930000Y-120010000D03*
X120930000Y-120010000D03*
X115705000Y-133560000D03*
X120705000Y-133560000D03*
X91575000Y-99118885D03*
X96575000Y-99118885D03*
D19*
X148650000Y-109050000D03*
D20*
X148650000Y-106510000D03*
D25*
X145400000Y-120850000D03*
X109325000Y-150375000D03*
X96275000Y-150300000D03*
X133325000Y-150350000D03*
X120750000Y-150300000D03*
X117850000Y-76875000D03*
X115250000Y-76900000D03*
X117850000Y-79425000D03*
X115250000Y-79450000D03*
X107825000Y-92000000D03*
X107800000Y-125275000D03*
X132375000Y-90250000D03*
X132375000Y-108425000D03*
X107800000Y-138550000D03*
X132375000Y-125125000D03*
X132400000Y-138575000D03*
X107825000Y-108525000D03*
X104900000Y-128625000D03*
X100525000Y-106425000D03*
X104825000Y-111875000D03*
X147000000Y-109025000D03*
X129025000Y-93650000D03*
X101050000Y-136750000D03*
X129000000Y-111825000D03*
X125075000Y-123300000D03*
X128700000Y-128550000D03*
X104775000Y-141900000D03*
X125075000Y-136875000D03*
X125200000Y-88550000D03*
X100575000Y-123225000D03*
X128975000Y-141925000D03*
X125000000Y-106575000D03*
X100650000Y-90125000D03*
X104750000Y-95400000D03*
X99100000Y-94525000D03*
X99050000Y-111050000D03*
X99100000Y-127800000D03*
X123162500Y-92662500D03*
X123150000Y-127700000D03*
X123150000Y-111025000D03*
X99075000Y-141075000D03*
X123150000Y-141075000D03*
X126250000Y-138525000D03*
X130525000Y-91485000D03*
X118675000Y-106400000D03*
X120500000Y-87075000D03*
X118705000Y-123885000D03*
X102250000Y-90375000D03*
X102225000Y-119500000D03*
X102225000Y-138450000D03*
X102375000Y-102820000D03*
%LPD*%
M02*
