M48
; DRILL file {KiCad 8.0.3} date 2025-08-16T11:06:58+0200
; FORMAT={-:-/ absolute / metric / decimal}
; #@! TF.CreationDate,2025-08-16T11:06:58+02:00
; #@! TF.GenerationSoftware,Kicad,Pcbnew,8.0.3
; #@! TF.FileFunction,Plated,1,2,PTH
FMAT,2
METRIC
; #@! TA.AperFunction,Plated,PTH,ViaDrill
T1C0.300
; #@! TA.AperFunction,Plated,PTH,ComponentDrill
T2C0.800
; #@! TA.AperFunction,Plated,PTH,ComponentDrill
T3C0.890
; #@! TA.AperFunction,Plated,PTH,ComponentDrill
T4C0.900
; #@! TA.AperFunction,Plated,PTH,ComponentDrill
T5C1.000
; #@! TA.AperFunction,Plated,PTH,ComponentDrill
T6C1.100
; #@! TA.AperFunction,Plated,PTH,ComponentDrill
T7C2.010
%
G90
G05
T1
X96.275Y-150.3
X99.05Y-111.05
X99.075Y-141.075
X99.1Y-94.525
X99.1Y-127.8
X100.525Y-106.425
X100.575Y-123.225
X100.65Y-90.125
X101.05Y-136.75
X102.225Y-119.5
X102.225Y-138.45
X102.25Y-90.375
X102.375Y-102.82
X104.75Y-95.4
X104.775Y-141.9
X104.825Y-111.875
X104.9Y-128.625
X107.8Y-125.275
X107.8Y-138.55
X107.825Y-92.0
X107.825Y-108.525
X109.325Y-150.375
X115.25Y-76.9
X115.25Y-79.45
X117.85Y-76.875
X117.85Y-79.425
X118.675Y-106.4
X118.705Y-123.885
X120.5Y-87.075
X120.75Y-150.3
X123.15Y-111.025
X123.15Y-127.7
X123.15Y-141.075
X123.162Y-92.662
X125.0Y-106.575
X125.075Y-123.3
X125.075Y-136.875
X125.2Y-88.55
X126.25Y-138.525
X128.7Y-128.55
X128.975Y-141.925
X129.0Y-111.825
X129.025Y-93.65
X130.525Y-91.485
X132.375Y-90.25
X132.375Y-108.425
X132.375Y-125.125
X132.4Y-138.575
X133.325Y-150.35
X145.4Y-120.85
X147.0Y-109.025
T2
X91.5Y-145.45
X91.505Y-129.03
X91.505Y-132.855
X91.53Y-122.58
X91.575Y-88.369
X91.575Y-95.094
X91.575Y-99.119
X91.587Y-116.057
X91.6Y-112.12
X91.625Y-105.495
X96.5Y-145.45
X96.505Y-129.03
X96.505Y-132.855
X96.53Y-122.58
X96.575Y-88.369
X96.575Y-95.094
X96.575Y-99.119
X96.587Y-116.057
X96.6Y-112.12
X96.625Y-105.495
X109.875Y-94.469
X109.875Y-99.469
X109.875Y-111.025
X109.875Y-116.025
X109.875Y-127.775
X109.875Y-132.775
X109.875Y-141.0
X109.875Y-146.0
X115.662Y-145.45
X115.705Y-133.56
X115.725Y-109.6
X115.725Y-116.025
X115.73Y-127.16
X115.75Y-97.95
X115.8Y-91.525
X120.662Y-145.45
X120.705Y-133.56
X120.725Y-109.6
X120.725Y-116.025
X120.73Y-127.16
X120.75Y-97.95
X120.8Y-91.525
X120.925Y-84.025
X120.93Y-120.01
X120.95Y-102.0
X125.925Y-84.025
X125.93Y-120.01
X125.95Y-102.0
X134.8Y-110.975
X134.8Y-115.975
X134.85Y-92.75
X134.85Y-97.75
X134.875Y-127.65
X134.875Y-132.65
X134.9Y-141.05
X134.9Y-146.05
X141.875Y-146.275
X141.925Y-117.3
X141.925Y-122.3
X141.975Y-125.025
X141.975Y-130.025
X142.15Y-132.845
X142.15Y-143.005
X146.025Y-137.75
X146.025Y-142.75
X146.875Y-146.275
T3
X100.36Y-69.8
X102.85Y-151.525
X102.9Y-69.8
X105.39Y-151.525
X124.635Y-69.775
X127.05Y-151.5
X127.175Y-69.775
X129.59Y-151.5
T4
X148.625Y-111.785
X148.625Y-114.325
X148.65Y-106.51
X148.65Y-109.05
T5
X100.325Y-76.835
X100.325Y-79.375
X102.865Y-76.835
X102.865Y-79.375
X105.405Y-76.835
X105.405Y-79.375
X124.65Y-76.91
X124.65Y-79.45
X127.19Y-76.91
X127.19Y-79.45
X129.73Y-76.91
X129.73Y-79.45
X147.243Y-118.532
X147.243Y-121.072
X147.243Y-123.612
X147.243Y-131.232
X147.243Y-133.773
X152.65Y-151.925
X152.65Y-154.465
T6
X152.45Y-138.075
X152.45Y-148.235
T7
X97.77Y-156.605
X97.82Y-64.72
X107.93Y-156.605
X107.98Y-64.72
X121.97Y-156.58
X122.095Y-64.695
X132.13Y-156.58
X132.255Y-64.695
T5
X141.525Y-150.55G85X144.125Y-150.55
G05
X141.725Y-156.85G85X143.925Y-156.85
G05
X147.625Y-152.35G85X147.625Y-154.55
G05
M30
