G04 #@! TF.GenerationSoftware,KiCad,Pcbnew,8.0.3*
G04 #@! TF.CreationDate,2025-08-16T11:06:09+02:00*
G04 #@! TF.ProjectId,Pomiar_Filtrow_PCB,506f6d69-6172-45f4-9669-6c74726f775f,rev?*
G04 #@! TF.SameCoordinates,Original*
G04 #@! TF.FileFunction,Paste,Top*
G04 #@! TF.FilePolarity,Positive*
%FSLAX46Y46*%
G04 Gerber Fmt 4.6, Leading zero omitted, Abs format (unit mm)*
G04 Created by KiCad (PCBNEW 8.0.3) date 2025-08-16 11:06:09*
%MOMM*%
%LPD*%
G01*
G04 APERTURE LIST*
G04 Aperture macros list*
%AMRoundRect*
0 Rectangle with rounded corners*
0 $1 Rounding radius*
0 $2 $3 $4 $5 $6 $7 $8 $9 X,Y pos of 4 corners*
0 Add a 4 corners polygon primitive as box body*
4,1,4,$2,$3,$4,$5,$6,$7,$8,$9,$2,$3,0*
0 Add four circle primitives for the rounded corners*
1,1,$1+$1,$2,$3*
1,1,$1+$1,$4,$5*
1,1,$1+$1,$6,$7*
1,1,$1+$1,$8,$9*
0 Add four rect primitives between the rounded corners*
20,1,$1+$1,$2,$3,$4,$5,0*
20,1,$1+$1,$4,$5,$6,$7,0*
20,1,$1+$1,$6,$7,$8,$9,0*
20,1,$1+$1,$8,$9,$2,$3,0*%
G04 Aperture macros list end*
%ADD10RoundRect,0.150000X-0.800000X-0.150000X0.800000X-0.150000X0.800000X0.150000X-0.800000X0.150000X0*%
%ADD11RoundRect,0.250000X-0.400000X-0.625000X0.400000X-0.625000X0.400000X0.625000X-0.400000X0.625000X0*%
%ADD12RoundRect,0.250000X0.400000X0.625000X-0.400000X0.625000X-0.400000X-0.625000X0.400000X-0.625000X0*%
G04 APERTURE END LIST*
D10*
X99255000Y-123975000D03*
X99255000Y-125245000D03*
X99255000Y-126515000D03*
X99255000Y-127785000D03*
X106255000Y-127785000D03*
X106255000Y-126515000D03*
X106255000Y-125245000D03*
X106255000Y-123975000D03*
X123475000Y-123895000D03*
X123475000Y-125165000D03*
X123475000Y-126435000D03*
X123475000Y-127705000D03*
X130475000Y-127705000D03*
X130475000Y-126435000D03*
X130475000Y-125165000D03*
X130475000Y-123895000D03*
D11*
X139500000Y-111100000D03*
X142600000Y-111100000D03*
X127100000Y-145600000D03*
X130200000Y-145600000D03*
X115555000Y-130410000D03*
X118655000Y-130410000D03*
X91380000Y-125730000D03*
X94480000Y-125730000D03*
D12*
X102275000Y-102925000D03*
X99175000Y-102925000D03*
X102150000Y-86218885D03*
X99050000Y-86218885D03*
D11*
X103000000Y-145525000D03*
X106100000Y-145525000D03*
D12*
X102100000Y-119525000D03*
X99000000Y-119525000D03*
D11*
X115605000Y-123885000D03*
X118705000Y-123885000D03*
X139500000Y-108550000D03*
X142600000Y-108550000D03*
D10*
X99325000Y-137270000D03*
X99325000Y-138540000D03*
X99325000Y-139810000D03*
X99325000Y-141080000D03*
X106325000Y-141080000D03*
X106325000Y-139810000D03*
X106325000Y-138540000D03*
X106325000Y-137270000D03*
X123525000Y-137270000D03*
X123525000Y-138540000D03*
X123525000Y-139810000D03*
X123525000Y-141080000D03*
X130525000Y-141080000D03*
X130525000Y-139810000D03*
X130525000Y-138540000D03*
X130525000Y-137270000D03*
D11*
X91475000Y-108820000D03*
X94575000Y-108820000D03*
D10*
X99150000Y-90735000D03*
X99150000Y-92005000D03*
X99150000Y-93275000D03*
X99150000Y-94545000D03*
X106150000Y-94545000D03*
X106150000Y-93275000D03*
X106150000Y-92005000D03*
X106150000Y-90735000D03*
D11*
X91450000Y-91818885D03*
X94550000Y-91818885D03*
D10*
X123525000Y-88945000D03*
X123525000Y-90215000D03*
X123525000Y-91485000D03*
X123525000Y-92755000D03*
X130525000Y-92755000D03*
X130525000Y-91485000D03*
X130525000Y-90215000D03*
X130525000Y-88945000D03*
D11*
X115650000Y-94750000D03*
X118750000Y-94750000D03*
X115625000Y-88275000D03*
X118725000Y-88275000D03*
D10*
X99300000Y-107240000D03*
X99300000Y-108510000D03*
X99300000Y-109780000D03*
X99300000Y-111050000D03*
X106300000Y-111050000D03*
X106300000Y-109780000D03*
X106300000Y-108510000D03*
X106300000Y-107240000D03*
D11*
X115575000Y-112850000D03*
X118675000Y-112850000D03*
D10*
X123475000Y-107195000D03*
X123475000Y-108465000D03*
X123475000Y-109735000D03*
X123475000Y-111005000D03*
X130475000Y-111005000D03*
X130475000Y-109735000D03*
X130475000Y-108465000D03*
X130475000Y-107195000D03*
D11*
X115575000Y-106400000D03*
X118675000Y-106400000D03*
M02*
